<?xml version="1.0" encoding="iso-8859-1"?>
<!-- Generator: Adobe Illustrator 23.0.5, SVG Export Plug-In . SVG Version: 6.00 Build 0)  -->
<svg version="1.1" xmlns="http://www.w3.org/2000/svg" xmlns:xlink="http://www.w3.org/1999/xlink" x="0px" y="0px"
	 viewBox="0 0 492 492" style="enable-background:new 0 0 492 492;" xml:space="preserve">
<g id="Master_Layer_2">
</g>
<g id="Layer_1">
	<g>
		<g>
			<g>
				<g>
					<g>
						<g>
							<path style="fill-rule:evenodd;clip-rule:evenodd;fill:#212121;" d="M204.668,425.324c-0.192,0-0.408,0-0.624-0.024
								c-3.168-0.336-5.448-3.168-5.112-6.336c4.32-40.824-8.496-59.616-19.8-76.2c-7.56-11.064-14.688-21.528-15.144-36.312
								c-0.096-3.168,2.4-5.832,5.568-5.928s5.832,2.4,5.928,5.568c0.36,11.424,6,19.704,13.152,30.168
								c11.808,17.304,26.496,38.856,21.72,83.904C210.068,423.14,207.572,425.324,204.668,425.324z"/>
						</g>
						<g>
							<path style="fill-rule:evenodd;clip-rule:evenodd;fill:#212121;" d="M272.684,428.204c-3.144,0-5.712-2.52-5.76-5.664
								c-0.048-3.24-0.096-6.312-0.168-9.264c-0.336-17.568-0.6-30.264,2.928-40.296c1.056-3,4.344-4.584,7.344-3.528
								c3,1.056,4.584,4.344,3.528,7.344c-2.832,8.064-2.616,19.896-2.28,36.264c0.048,2.976,0.12,6.048,0.168,9.336
								c0.048,3.192-2.496,5.808-5.664,5.832C272.756,428.204,272.732,428.204,272.684,428.204z"/>
						</g>
					</g>
					<g>
						<path style="fill-rule:evenodd;clip-rule:evenodd;fill:#212121;" d="M246.26,431.06c-24.888,0-49.008-4.872-71.736-14.496
							c-21.96-9.288-41.664-22.584-58.584-39.504c-16.92-16.92-30.216-36.648-39.504-58.584
							c-9.624-22.728-14.496-46.872-14.496-71.736s4.872-49.008,14.496-71.736c9.288-21.96,22.584-41.664,39.504-58.584
							s36.648-30.216,58.584-39.504c22.728-9.624,46.848-14.497,71.736-14.497c24.888,0,49.008,4.872,71.736,14.496
							c21.96,9.288,41.664,22.584,58.584,39.504c16.92,16.92,30.216,36.648,39.504,58.584c9.624,22.728,14.496,46.872,14.496,71.736
							s-4.872,49.008-14.496,71.736c-9.288,21.96-22.584,41.664-39.504,58.584c-16.92,16.92-36.648,30.216-58.584,39.504
							C295.268,426.188,271.148,431.06,246.26,431.06L246.26,431.06z M246.26,73.94c-23.328,0-45.96,4.56-67.248,13.584
							c-20.592,8.688-39.072,21.168-54.936,37.032c-15.864,15.864-28.344,34.344-37.032,54.936
							C78.02,200.78,73.46,223.412,73.46,246.74s4.56,45.96,13.584,67.248c8.712,20.568,21.168,39.048,37.032,54.936
							c15.864,15.864,34.344,28.32,54.936,37.032c21.288,9,43.92,13.584,67.248,13.584s45.96-4.56,67.248-13.584
							c20.568-8.712,39.048-21.168,54.936-37.032c15.864-15.864,28.32-34.344,37.032-54.936c9-21.288,13.584-43.92,13.584-67.248
							s-4.56-45.96-13.584-67.248c-8.712-20.568-21.168-39.048-37.032-54.936c-15.864-15.864-34.344-28.32-54.936-37.032
							C292.22,78.5,269.588,73.94,246.26,73.94z"/>
					</g>
				</g>
				<g>
					<g>
						<path style="fill-rule:evenodd;clip-rule:evenodd;fill:#212121;" d="M169.748,312.044c-3.096,0-5.664-2.472-5.76-5.592
							c-0.192-6.144-0.264-101.832-0.072-107.76c0.192-5.904,2.184-11.04,5.784-14.88c3.336-3.552,7.824-5.736,12.696-6.144
							c5.664-0.504,11.112,1.224,14.904,4.704c4.152,3.816,6.264,9.36,6.288,16.512c0,3.192-2.568,5.76-5.76,5.76l0,0
							c-3.168,0-5.76-2.568-5.76-5.76c0-3.792-0.864-6.504-2.544-8.04c-2.088-1.92-5.208-1.8-6.12-1.728
							c-5.688,0.504-7.848,5.664-7.968,9.912c-0.168,5.424-0.096,101.472,0.072,107.064c0.096,3.168-2.4,5.832-5.568,5.928
							C169.868,312.044,169.82,312.044,169.748,312.044z"/>
					</g>
					<g>
						<path style="fill-rule:evenodd;clip-rule:evenodd;fill:#212121;" d="M275.132,380.612c-0.696,0-1.392-0.12-2.064-0.384
							c-2.976-1.152-4.44-4.464-3.312-7.44c7.2-18.744,26.856-37.248,44.184-53.568c7.56-7.128,14.712-13.848,19.944-19.8
							c6.336-7.176,7.872-11.016,8.064-12.984c0.192-2.064-0.624-4.968-2.544-6.336c-1.176-0.816-2.88-1.776-5.736-1.896
							c-4.344-0.168-9.912,1.8-16.08,5.688c-1.056,0.672-5.184,3.84-9.552,7.2c-6.696,5.16-15.888,12.192-23.472,17.568
							c-2.592,1.824-6.192,1.224-8.04-1.392c-1.824-2.592-1.224-6.192,1.392-8.04c7.392-5.232,16.488-12.192,23.112-17.28
							c5.856-4.512,9-6.888,10.416-7.8c9.504-6,23.184-11.472,34.56-3.504c5.856,4.104,7.944,11.448,7.392,16.896
							c-1.104,11.328-14.568,24-31.584,40.056c-16.44,15.48-35.064,33.048-41.328,49.344
							C279.644,379.22,277.46,380.612,275.132,380.612z"/>
					</g>
					<g>
						<path style="fill-rule:evenodd;clip-rule:evenodd;fill:#212121;" d="M198.308,268.076c-3.144,0-5.712-2.52-5.76-5.688
							c-0.144-11.328-0.864-68.616-0.264-84.696c0.456-12.048,9.912-19.224,18.816-19.224c0.024,0,0.024,0,0.048,0
							c5.232,0.024,9.84,1.416,13.32,4.056c3.168,2.4,6.984,7.008,7.008,15.36c0.024,3.192-2.568,5.76-5.736,5.784h-0.024
							c-3.168,0-5.736-2.568-5.76-5.736c0-2.16-0.024-7.92-8.832-7.944c0,0,0,0-0.024,0c-2.712,0-7.08,2.208-7.296,8.136
							c-0.576,15.816,0.12,72.84,0.264,84.12c0.048,3.192-2.496,5.784-5.688,5.832C198.356,268.076,198.332,268.076,198.308,268.076
							z"/>
					</g>
					<g>
						<path style="fill-rule:evenodd;clip-rule:evenodd;fill:#212121;" d="M225.956,261.404c-3.168,0-5.736-2.544-5.76-5.712
							c-0.12-15.744-0.192-73.752-0.192-75.6l-0.024-2.016c-0.216-13.728-0.288-18.336,3.72-23.28
							c4.416-5.448,11.88-8.4,19.008-7.488c4.752,0.6,8.904,2.496,12.048,5.472c3.384,3.24,5.328,7.608,5.424,12.312
							c0.144,6.192,0.168,14.592,0.192,22.728c0,2.16,0.024,4.296,0.024,6.336c0.024,3.192-2.544,5.784-5.736,5.784h-0.024
							c-3.168,0-5.736-2.568-5.76-5.736c0-2.04-0.024-4.176-0.024-6.36c-0.024-8.064-0.048-16.416-0.192-22.512
							c-0.072-2.76-2.04-5.952-7.392-6.648c-3.168-0.408-6.72,0.96-8.616,3.312c-1.272,1.584-1.344,3.84-1.152,15.864l0.024,2.064
							c0,0.024,0,0.048,0,0.072c0,0.6,0.096,59.688,0.192,75.576c0.024,3.192-2.544,5.784-5.712,5.808
							C225.98,261.404,225.956,261.404,225.956,261.404z"/>
					</g>
					<g>
						<path style="fill-rule:evenodd;clip-rule:evenodd;fill:#212121;" d="M281.276,309.716c-3.192,0-5.76-2.568-5.76-5.76
							c0-8.376,0.096-31.08,0.192-55.104c0.12-28.224,0.24-57.384,0.24-70.032c0-7.776-6-7.776-8.28-7.776
							c-7.32,0-7.32,5.928-7.32,7.896c0,0.504,0.192,52.248,0,80.04c-0.024,3.192-2.616,5.736-5.808,5.712
							c-3.192-0.024-5.736-2.616-5.712-5.808c0.192-27.72,0-79.416,0-79.92c0-7.944,3.288-12.504,6.048-14.928
							c3.288-2.904,7.848-4.488,12.792-4.488c8.76,0,13.512,3.84,15.936,7.056c2.472,3.264,3.84,7.608,3.84,12.24
							c0,12.648-0.12,41.832-0.24,70.08c-0.096,24.024-0.192,46.704-0.192,55.056C287.036,307.124,284.444,309.716,281.276,309.716z
							"/>
					</g>
				</g>
			</g>
		</g>
	</g>
</g>
</svg>
