<?xml version="1.0" encoding="utf-8"?>
<!-- Generator: Adobe Illustrator 18.0.0, SVG Export Plug-In . SVG Version: 6.00 Build 0)  -->
<!DOCTYPE svg PUBLIC "-//W3C//DTD SVG 1.1//EN" "http://www.w3.org/Graphics/SVG/1.1/DTD/svg11.dtd">
<svg version="1.1" id="Layer_1" xmlns="http://www.w3.org/2000/svg" xmlns:xlink="http://www.w3.org/1999/xlink" x="0px" y="0px"
	 width="256px" height="256px" viewBox="0 0 256 256" enable-background="new 0 0 256 256" xml:space="preserve">
<g>
	<g>
		<g>
			<path fill="#E0E0E0" d="M155.4,147.7v101.6h-57V147.4l2.8,1.5c4.8,2.6,10.5,3.3,15.5,1.3c2.6-1,5.2-2.7,7-5.5
				c0,0,0.1-0.1,0.1-0.2l0.1,0.1l3,5.8l3.1-6.2l0.4-0.7c0,0,0.2,0.3,0.6,0.7c2.3,2.3,10.8,9.6,20.7,5.1
				C153.1,148.8,154.3,148.2,155.4,147.7z"/>
		</g>
	</g>
	<g>
		<path fill="#E0E0E0" d="M128.2,114.8c0.7,1,1.3,2.1,1.6,3.2c-2.7,0.5-5.5-0.1-7.8-1.6L92,98.6L87.4,93l-0.1-0.1l-0.1-0.1
			c-1.3-1.5-2.4-3.3-3.1-5.2c-0.7-1.8-1-3.6-1.1-5.5C82.9,72.7,90.9,65,100.4,65h9.3l3.5,16.3l3.8,17.9l3.3,4.7L128.2,114.8z"/>
	</g>
	<g>
		<path fill="#E0E0E0" d="M170.7,90.2v4.6l-37.2,21.8l1.4-4.9l6.8-29.6l3-12.9l0.2-0.6l0.1-0.3l0.7-3.2h0.3l0.7,0
			c6.3,0.3,12.3,2.9,16.7,7.3c1.3,1.3,2.4,2.8,3.5,4.4c0.1,0.2,0.3,0.4,0.4,0.7C169.5,81.3,170.7,85.7,170.7,90.2z"/>
	</g>
	<g>
		<path fill="#F68F6F" d="M131.3,77.9l3.6,33.8l-7.8,27.8l-2.2-8c0.4-0.3,0.8-0.5,1.2-0.9c2.8-2.3,4.2-5.6,4.2-9
			c0-2.4-0.7-4.8-2.2-6.8l-7.8-10.9l2.8-26l-2.4-6.6l-1.8-5.1h16.5l-1.8,5.1L131.3,77.9z"/>
	</g>
	<g>
		<g>
			<path fill="#4A555F" d="M50.1,63C50.1,63,50.1,63,50.1,63c-1.3,0-2.5-0.1-3.8-0.3c-15.2-2.1-25.9-16.1-23.8-31.3
				C24.3,17.7,36.2,7.4,50,7.4c1.2,0,2.5,0.1,3.8,0.3c7.4,1,13.9,4.8,18.4,10.7c4.5,5.9,6.4,13.2,5.4,20.6
				C75.7,52.6,63.9,63,50.1,63z M50,10.6c-12.2,0-22.6,9.1-24.3,21.3c-1.8,13.4,7.6,25.8,21,27.6c1.1,0.1,2.2,0.2,3.3,0.2
				c0,0,0,0,0,0c12.2,0,22.6-9.1,24.3-21.3c0.9-6.5-0.8-12.9-4.8-18.2c-4-5.2-9.7-8.6-16.2-9.4C52.2,10.7,51.1,10.6,50,10.6z"/>
		</g>
		<g>
			<path fill="#FFD552" d="M50.1,55.9c-0.9,0-1.9-0.1-2.8-0.2c-5.5-0.7-10.4-3.6-13.7-8c-3.4-4.4-4.8-9.9-4.1-15.3
				c1.4-10.2,10.2-18,20.5-18c0.9,0,1.9,0.1,2.8,0.2c5.5,0.7,10.4,3.6,13.7,8c3.4,4.4,4.8,9.9,4.1,15.3
				C69.2,48.2,60.4,55.9,50.1,55.9C50.1,55.9,50.1,55.9,50.1,55.9z"/>
		</g>
	</g>
	<g>
		<path fill="#4A555F" d="M62.1,249.2h-3.3l0-61l8.1-60.1L34,112c-5.6-2.7-9.8-7.6-11.6-13.3c-1.6-5-1.2-10.2,1.2-14.6
			c3.2-6,9.4-9.5,16.6-9.5c4.2,0,8.4,1.2,12,3.6l19.4,12c-0.7-14-11.2-25.5-25.4-27.4c-7.8-1.1-15.5,1-21.7,5.7
			c-6.2,4.7-10.2,11.6-11.3,19.4l-9.8,72.4c-0.7,5.2,0.7,10.4,3.9,14.6c3.2,4.2,7.8,6.9,13.1,7.6l0.3,0.1l7.2,2.3v64.4h-3.3v-62
			l-4.8-1.6c-6-0.9-11.4-4-15.1-8.8c-3.7-4.9-5.3-10.9-4.5-17L10,87.4c1.2-8.6,5.6-16.3,12.6-21.6c6.9-5.3,15.5-7.5,24.1-6.4
			c16.8,2.3,28.9,16.7,28.2,33.7L74.8,96L50.5,81c-3.2-2-6.7-3.1-10.3-3.1c-6,0-11.1,2.9-13.7,7.8c-2,3.6-2.3,7.9-1,12.1
			c1.5,4.8,5.2,9,9.9,11.3l35.2,17.1l-8.4,62.4V249.2z"/>
	</g>
	<g>
		<path fill="#E0E0E0" d="M31.7,249.2v-67.2l-10.3-3.3l-0.5-0.1c-4.2-0.6-8-2.7-10.5-6.1c-2.6-3.4-3.7-7.6-3.1-11.8L17,88.4
			c1.7-12.6,12.6-22.1,25.3-22.1c1.1,0,2.3,0.1,3.5,0.2c13.9,1.9,23.8,14.8,21.9,28.7l-12.6,92.9v61.2H31.7z"/>
	</g>
	<g>
		<path fill="#4A555F" d="M109.2,147c-2.5,0-5.1-0.6-7.3-1.8L34,112c-5.6-2.8-9.8-7.6-11.6-13.3c-1.6-5-1.2-10.2,1.2-14.6
			c3.2-6,9.4-9.5,16.6-9.5c4.2,0,8.4,1.2,12,3.6l65.4,40.5c7,4.9,9,14.5,4.4,21.5C119.2,144.4,114.4,147,109.2,147z M40.2,77.9
			c-6,0-11.1,2.9-13.7,7.8c-2,3.6-2.3,7.9-1,12.1c1.5,4.8,5.2,9,9.9,11.3l68,33.1c1.8,1,3.8,1.5,5.8,1.5c4.1,0,7.8-2,10-5.4
			c3.6-5.5,2.1-13.1-3.4-17L50.5,81C47.3,78.9,43.8,77.9,40.2,77.9z"/>
	</g>
	<g>
		<path fill="#E0E0E0" d="M109.2,139.9c-1.4,0-2.7-0.3-4-1l-0.2-0.1l-68-33.1c-3.8-1.9-6.7-5.2-7.9-9.1c-1-3.2-0.8-6.4,0.7-9.1
			c2-3.6,5.8-5.8,10.4-5.8c2.8,0,5.7,0.9,8.2,2.5l65.4,40.4c3.8,2.7,4.8,7.9,2.3,11.7C114.6,138.5,112,139.9,109.2,139.9z"/>
	</g>
	<g>
		<path fill="#E0E0E0" d="M146.2,139.9c-2.8,0-5.4-1.4-6.9-3.7c-2.5-3.8-1.4-9,2.3-11.7L207,84.2c2.6-1.7,5.4-2.5,8.3-2.5
			c4.5,0,8.4,2.2,10.4,5.8c1.5,2.7,1.7,5.9,0.7,9.1c-1.2,3.9-4.1,7.2-8,9.1l-68.1,33.2C149,139.5,147.6,139.9,146.2,139.9
			L146.2,139.9z"/>
	</g>
	<g>
		<g>
			<path fill="#4A555F" d="M205.9,63c-13.8,0-25.7-10.4-27.5-24.1c-1-7.4,0.9-14.7,5.4-20.6c4.5-5.9,11-9.7,18.4-10.7
				c1.2-0.2,2.5-0.3,3.8-0.3c13.8,0,25.7,10.4,27.5,24.1c2.1,15.2-8.6,29.2-23.8,31.3C208.4,62.9,207.2,63,205.9,63z M206,10.6
				c-1.1,0-2.2,0.1-3.3,0.2c-6.5,0.9-12.3,4.2-16.2,9.4c-4,5.2-5.7,11.7-4.8,18.2c1.6,12.1,12.1,21.3,24.3,21.3
				c1.1,0,2.2-0.1,3.3-0.2c13.4-1.8,22.8-14.2,21-27.6C228.6,19.8,218.2,10.6,206,10.6z"/>
		</g>
		<g>
			<path fill="#FFD552" d="M205.9,55.9c-10.3,0-19.1-7.7-20.5-18c-0.7-5.5,0.7-10.9,4.1-15.3s8.2-7.2,13.7-8
				c0.9-0.1,1.9-0.2,2.8-0.2c10.3,0,19.1,7.7,20.5,18c0.7,5.5-0.7,10.9-4.1,15.3s-8.2,7.2-13.7,8C207.8,55.9,206.9,55.9,205.9,55.9z
				"/>
		</g>
	</g>
	<g>
		<path fill="#4A555F" d="M231.4,249.2h-3.3v-64.4l7.5-2.4c5.2-0.7,9.9-3.4,13.1-7.6c3.2-4.2,4.6-9.4,3.8-14.6l-9.8-72.4
			c-1-7.8-5.1-14.7-11.3-19.4c-6.2-4.7-13.9-6.8-21.7-5.7c-14,1.9-24.5,13.3-25.3,27.1l18.8-11.7c3.7-2.3,7.8-3.6,12-3.6
			c7.2,0,13.4,3.6,16.6,9.5c2.4,4.4,2.8,9.6,1.2,14.6c-1.8,5.7-6,10.5-11.6,13.3L189,127.9l8.2,60.6v60.8h-3.3v-60.7l-8.5-62.6
			l34.7-16.9c4.7-2.3,8.4-6.5,9.9-11.3c1.3-4.2,1-8.5-1-12.1c-2.6-4.9-7.8-7.8-13.7-7.8c-3.6,0-7.1,1.1-10.3,3.1l-23.8,14.7
			l-0.1-2.8c-0.6-16.8,11.6-31.1,28.2-33.3c8.6-1.2,17.2,1.1,24.1,6.4c6.9,5.3,11.4,12.9,12.5,21.6l9.8,72.4
			c0.8,6.1-0.8,12.1-4.5,17c-3.7,4.9-9,8-15.1,8.8l-4.8,1.6V249.2z"/>
	</g>
	<g>
		<path fill="#E0E0E0" d="M200.9,249.2v-61.2l-12.6-92.9c-1.9-13.9,7.9-26.8,21.9-28.7c1.1-0.2,2.3-0.2,3.5-0.2
			c12.7,0,23.6,9.5,25.3,22.1l9.8,72.4c0.6,4.2-0.5,8.4-3.1,11.8c-2.6,3.4-6.3,5.6-10.5,6.1l-0.5,0.1l-10.3,3.3v67.2H200.9z"/>
	</g>
	<g>
		<path fill="#4A555F" d="M231.4,249.2h-3.3v-64.4l7.5-2.4c5.2-0.7,9.9-3.4,13.1-7.6c3.2-4.2,4.6-9.4,3.8-14.6l-9.8-72.4
			c-1-7.8-5.1-14.7-11.3-19.4c-6.2-4.7-13.9-6.8-21.7-5.7c-14,1.9-24.5,13.3-25.3,27.1l18.8-11.7c3.7-2.3,7.8-3.6,12-3.6
			c7.2,0,13.4,3.6,16.6,9.5c2.4,4.4,2.8,9.6,1.2,14.6c-1.8,5.7-6,10.5-11.6,13.3L189,127.9l8.2,60.6v60.8h-3.3v-60.7l-8.5-62.6
			l34.7-16.9c4.7-2.3,8.4-6.5,9.9-11.3c1.3-4.2,1-8.5-1-12.1c-2.6-4.9-7.8-7.8-13.7-7.8c-3.6,0-7.1,1.1-10.3,3.1l-23.8,14.7
			l-0.1-2.8c-0.6-16.8,11.6-31.1,28.2-33.3c8.6-1.2,17.2,1.1,24.1,6.4c6.9,5.3,11.4,12.9,12.5,21.6l9.8,72.4
			c0.8,6.1-0.8,12.1-4.5,17c-3.7,4.9-9,8-15.1,8.8l-4.8,1.6V249.2z"/>
	</g>
	<g>
		<path fill="#E0E0E0" d="M200.9,249.2v-61.2l-12.6-92.9c-1.9-13.9,7.9-26.8,21.9-28.7c1.1-0.2,2.3-0.2,3.5-0.2
			c12.7,0,23.6,9.5,25.3,22.1l9.8,72.4c0.6,4.2-0.5,8.4-3.1,11.8c-2.6,3.4-6.3,5.6-10.5,6.1l-0.5,0.1l-10.3,3.3v67.2H200.9z"/>
	</g>
	<g>
		<g>
			<g>
				<path fill="#F68F6F" d="M131.3,77.9l3.6,33.8l-7.8,27.8l-2.2-8c0.4-0.3,0.8-0.5,1.2-0.9c2.8-2.3,4.2-5.6,4.2-9
					c0-2.4-0.7-4.8-2.2-6.8l-7.8-10.9l2.8-26l-2.4-6.6l-1.8-5.1h16.5l-1.8,5.1L131.3,77.9z"/>
			</g>
		</g>
		<g>
			<path fill="#4A555F" d="M127.2,61.2C112.2,61.2,100,49,100,34c0-15,12.2-27.2,27.2-27.2S154.5,19,154.5,34
				C154.5,49,142.2,61.2,127.2,61.2z M127.2,10c-13.2,0-24,10.7-24,24c0,13.2,10.7,24,24,24s24-10.7,24-24
				C151.2,20.8,140.4,10,127.2,10z"/>
		</g>
		<g>
			<path fill="#FFD552" d="M127.2,54.1c-11.1,0-20.1-9-20.1-20.1s9-20.1,20.1-20.1s20.1,9,20.1,20.1S138.3,54.1,127.2,54.1z"/>
		</g>
		<g>
			<rect x="91.3" y="139.5" fill="#4A555F" width="3.3" height="109.8"/>
		</g>
		<g>
			<path fill="#4A555F" d="M132.5,79.5H122l-5.3-14.9h21.2L132.5,79.5z M124.3,76.2h6l3-8.4h-11.9L124.3,76.2z"/>
		</g>
		<g>
			<polygon fill="#4A555F" points="133.3,111.9 129.9,79.5 124.6,79.5 122,104 118.7,103.7 121.6,76.2 132.8,76.2 133,77.7 
				136.5,111.5 			"/>
		</g>
		<g>
			<path fill="#4A555F" d="M112.3,85.2l-5.9-27.3h11.3l4.8,13.6L112.3,85.2z M110.5,61.2l3.5,16.3l4.9-6.5l-3.5-9.8H110.5z"/>
		</g>
		<g>
			<path fill="#4A555F" d="M142.5,85.9l-10.6-14.4l4.8-13.6h12.2L142.5,85.9z M135.6,71l5.3,7.2l3.9-17h-5.8L135.6,71z"/>
		</g>
		<g>
			<path fill="#4A555F" d="M128.7,139.9l-3.2,0l-2.2-8l0.7-1.8c0.3-0.2,0.6-0.4,1-0.7c2.3-1.9,3.6-4.7,3.6-7.7
				c0-2.1-0.7-4.2-1.9-5.9l-11.2-15.6l-0.3-0.6l-8.5-39.6l1.6-2h38.4l1.6,2.1l-11.9,52L128.7,139.9z M126.9,132.1l0.3,1.2l0.5-1.9
				c-0.2,0.1-0.3,0.3-0.5,0.4C127.1,132,127,132,126.9,132.1z M118.5,98.5l11,15.3c0.9,1.2,1.6,2.6,2,4l1.8-6.6l11.5-50.1h-34.3
				L118.5,98.5z"/>
		</g>
	</g>
	<g>
		<g>
			<g>
				<path fill="#F68F6F" d="M131.3,77.9l3.6,33.8l-7.8,27.8l-2.2-8c0.4-0.3,0.8-0.5,1.2-0.9c2.8-2.3,4.2-5.6,4.2-9
					c0-2.4-0.7-4.8-2.2-6.8l-7.8-10.9l2.8-26l-2.4-6.6l-1.8-5.1h16.5l-1.8,5.1L131.3,77.9z"/>
			</g>
		</g>
		<g>
			<path fill="#4A555F" d="M132.5,79.5H122l-5.3-14.9h21.2L132.5,79.5z M124.3,76.2h6l3-8.4h-11.9L124.3,76.2z"/>
		</g>
		<g>
			<polygon fill="#4A555F" points="133.3,111.9 129.9,79.5 124.6,79.5 122,104 118.7,103.7 121.6,76.2 132.8,76.2 133,77.7 
				136.5,111.5 			"/>
		</g>
		<g>
			<path fill="#4A555F" d="M112.3,85.2l-5.9-27.3h11.3l4.8,13.6L112.3,85.2z M110.5,61.2l3.5,16.3l4.9-6.5l-3.5-9.8H110.5z"/>
		</g>
		<g>
			<path fill="#4A555F" d="M142.5,85.9l-10.6-14.4l4.8-13.6h12.2L142.5,85.9z M135.6,71l5.3,7.2l3.9-17h-5.8L135.6,71z"/>
		</g>
		<g>
			<path fill="#4A555F" d="M128.7,139.9l-3.2,0l-2.2-8l0.7-1.8c0.3-0.2,0.6-0.4,1-0.7c2.3-1.9,3.6-4.7,3.6-7.7
				c0-2.1-0.7-4.2-1.9-5.9l-11.2-15.6l-0.3-0.6l-8.5-39.6l1.6-2h38.4l1.6,2.1l-11.9,52L128.7,139.9z M126.9,132.1l0.3,1.2l0.5-1.9
				c-0.2,0.1-0.3,0.3-0.5,0.4C127.1,132,127,132,126.9,132.1z M118.5,98.5l11,15.3c0.9,1.2,1.6,2.6,2,4l1.8-6.6l11.5-50.1h-34.3
				L118.5,98.5z"/>
		</g>
	</g>
	<g>
		<rect x="91.3" y="139.5" fill="#4A555F" width="3.3" height="109.8"/>
	</g>
	<g>
		<rect x="159.2" y="139.5" fill="#4A555F" width="3.3" height="109.8"/>
	</g>
	<g>
		<path fill="#4A555F" d="M132.5,79.5H122l-5.3-14.9h21.2L132.5,79.5z M124.3,76.2h6l3-8.4h-11.9L124.3,76.2z"/>
	</g>
	<g>
		<polygon fill="#4A555F" points="133.3,111.9 129.9,79.5 124.6,79.5 122,104 118.7,103.7 121.6,76.2 132.8,76.2 133,77.7 
			136.5,111.5 		"/>
	</g>
	<g>
		<path fill="#4A555F" d="M112.3,85.2l-5.9-27.3h11.3l4.8,13.6L112.3,85.2z M110.5,61.2l3.5,16.3l4.9-6.5l-3.5-9.8H110.5z"/>
	</g>
	<g>
		<path fill="#4A555F" d="M142.5,85.9l-10.6-14.4l4.8-13.6h12.2L142.5,85.9z M135.6,71l5.3,7.2l3.9-17h-5.8L135.6,71z"/>
	</g>
	<g>
		<rect x="126" y="184.1" fill="#4A555F" width="3.3" height="65.1"/>
	</g>
	<g>
		<path fill="#4A555F" d="M123.5,134.1l-1.2-3c1-0.4,2-1,2.8-1.7c2.3-1.9,3.6-4.8,3.6-7.8c0-2.1-0.7-4.2-1.9-5.9l-21.3-29.6l2.7-1.9
			l21.3,29.6c1.6,2.3,2.5,5,2.5,7.8c0,4-1.7,7.7-4.8,10.3C126.1,132.8,124.8,133.5,123.5,134.1z"/>
	</g>
	<g>
		<path fill="#4A555F" d="M162.5,249.2h-3.3v-97.8l1.6-1.6h1c0.9,0,1.7-0.1,2.6-0.3c5.9-1.2,10.1-6.4,10.1-12.4v-4.8h3.3v4.8
			c0,7.5-5.4,14.1-12.7,15.6c-0.8,0.2-1.7,0.3-2.6,0.3V249.2z"/>
	</g>
	<g>
		<path fill="#4A555F" d="M86.5,103.1l-4.5-5.6c-1.9-2.1-3.4-4.6-4.4-7.3c-1-2.7-1.5-5.5-1.5-8.4c0-13.2,10.7-23.9,23.9-23.9h47
			l0.1,0.1l0,0c8.1,0.3,15.7,3.7,21.4,9.4c1.6,1.7,3.1,3.5,4.4,5.5c0.2,0.3,0.4,0.6,0.6,0.9c2.9,5,4.5,10.6,4.5,16.4v6.7h-3.3v-6.7
			c0-5.2-1.4-10.3-4-14.7c-0.2-0.3-0.3-0.5-0.5-0.8c-1.2-1.8-2.5-3.5-4-5c-5.2-5.1-12-8.1-19.3-8.4l0,0H99.9
			c-11.4,0-20.6,9.2-20.6,20.6c0,2.5,0.4,5,1.3,7.3c0.9,2.3,2.2,4.5,3.8,6.3L89,101L86.5,103.1z"/>
	</g>
	<g>
		<path fill="#4A555F" d="M125.9,132.9l-1.7-2.8c0.3-0.2,0.6-0.4,1-0.7c2.3-1.9,3.6-4.7,3.6-7.7c0-2.1-0.7-4.2-1.9-5.9l-21.3-29.6
			l2.7-1.9l21.3,29.6c1.6,2.3,2.5,5,2.5,7.8c0,4-1.7,7.7-4.8,10.3C126.7,132.3,126.3,132.6,125.9,132.9z"/>
	</g>
	<g>
		<polygon fill="#4A555F" points="146.9,61.2 108.5,61.2 108.5,57.9 146.9,57.9 148.4,60.1 146.9,59.6 		"/>
	</g>
	<g>
		<path fill="#4A555F" d="M146.2,147C146.2,147,146.2,147,146.2,147c-5.2,0-9.9-2.6-12.8-6.8c-4.6-7-2.7-16.6,4.3-21.4l65.5-40.5
			c3.7-2.3,7.8-3.6,12-3.6c7.2,0,13.4,3.6,16.6,9.5c2.4,4.4,2.8,9.6,1.2,14.6c-1.8,5.7-6,10.5-11.6,13.3l-68,33.1
			C151.3,146.3,148.8,147,146.2,147z M215.3,77.9c-3.6,0-7.1,1.1-10.3,3.1l-65.5,40.5c-5.5,3.8-7,11.4-3.4,16.9
			c2.2,3.4,6,5.4,10,5.4l0,0c2,0,4-0.5,5.8-1.4l68.1-33.2c4.7-2.4,8.4-6.5,9.9-11.3c1.3-4.2,1-8.5-1-12.1
			C226.4,80.8,221.3,77.9,215.3,77.9z"/>
	</g>
	<g>
		<path fill="#E0E0E0" d="M123.8,144.5l0.1,0.1l-0.2,0C123.7,144.7,123.8,144.6,123.8,144.5z"/>
	</g>
	<g>
		<path fill="#E0E0E0" d="M130.4,143.6c0,0,0.2,0.3,0.6,0.7l-1,0.1L130.4,143.6z"/>
	</g>
</g>
</svg>
